<?xml version="1.0" standalone="no"?>
<svg xmlns:xlink="http://www.w3.org/1999/xlink" id="wave" style="transform:rotate(0deg); transition: 0.3s" viewBox="0 0 1440 100" version="1.1" xmlns="http://www.w3.org/2000/svg"><defs><linearGradient id="sw-gradient-0" x1="0" x2="0" y1="1" y2="0"><stop stop-color="rgba(251, 251, 251, 1)" offset="0%"/><stop stop-color="rgba(251, 251, 251, 1)" offset="100%"/></linearGradient></defs><path style="transform:translate(0, 0px); opacity:1" fill="url(#sw-gradient-0)" d="M0,0L48,11.7C96,23,192,47,288,60C384,73,480,77,576,75C672,73,768,67,864,55C960,43,1056,27,1152,30C1248,33,1344,57,1440,70C1536,83,1632,87,1728,83.3C1824,80,1920,70,2016,68.3C2112,67,2208,73,2304,70C2400,67,2496,53,2592,51.7C2688,50,2784,60,2880,61.7C2976,63,3072,57,3168,56.7C3264,57,3360,63,3456,63.3C3552,63,3648,57,3744,46.7C3840,37,3936,23,4032,16.7C4128,10,4224,10,4320,16.7C4416,23,4512,37,4608,45C4704,53,4800,57,4896,56.7C4992,57,5088,53,5184,45C5280,37,5376,23,5472,21.7C5568,20,5664,30,5760,33.3C5856,37,5952,33,6048,36.7C6144,40,6240,50,6336,56.7C6432,63,6528,67,6624,61.7C6720,57,6816,43,6864,36.7L6912,30L6912,100L6864,100C6816,100,6720,100,6624,100C6528,100,6432,100,6336,100C6240,100,6144,100,6048,100C5952,100,5856,100,5760,100C5664,100,5568,100,5472,100C5376,100,5280,100,5184,100C5088,100,4992,100,4896,100C4800,100,4704,100,4608,100C4512,100,4416,100,4320,100C4224,100,4128,100,4032,100C3936,100,3840,100,3744,100C3648,100,3552,100,3456,100C3360,100,3264,100,3168,100C3072,100,2976,100,2880,100C2784,100,2688,100,2592,100C2496,100,2400,100,2304,100C2208,100,2112,100,2016,100C1920,100,1824,100,1728,100C1632,100,1536,100,1440,100C1344,100,1248,100,1152,100C1056,100,960,100,864,100C768,100,672,100,576,100C480,100,384,100,288,100C192,100,96,100,48,100L0,100Z"/></svg>