<?xml version="1.0" standalone="no"?>
<svg xmlns:xlink="http://www.w3.org/1999/xlink" id="wave" style="transform:rotate(0deg); transition: 0.3s" viewBox="0 0 1440 100" version="1.1" xmlns="http://www.w3.org/2000/svg"><defs><linearGradient id="sw-gradient-0" x1="0" x2="0" y1="1" y2="0"><stop stop-color="rgba(245, 245, 220, 1)" offset="0%"/><stop stop-color="rgba(245, 245, 220, 1)" offset="100%"/></linearGradient></defs><path style="transform:translate(0, 0px); opacity:1" fill="url(#sw-gradient-0)" d="M0,0L17.1,11.7C34.3,23,69,47,103,60C137.1,73,171,77,206,75C240,73,274,67,309,55C342.9,43,377,27,411,30C445.7,33,480,57,514,70C548.6,83,583,87,617,83.3C651.4,80,686,70,720,68.3C754.3,67,789,73,823,70C857.1,67,891,53,926,51.7C960,50,994,60,1029,61.7C1062.9,63,1097,57,1131,56.7C1165.7,57,1200,63,1234,63.3C1268.6,63,1303,57,1337,46.7C1371.4,37,1406,23,1440,16.7C1474.3,10,1509,10,1543,16.7C1577.1,23,1611,37,1646,45C1680,53,1714,57,1749,56.7C1782.9,57,1817,53,1851,45C1885.7,37,1920,23,1954,21.7C1988.6,20,2023,30,2057,33.3C2091.4,37,2126,33,2160,36.7C2194.3,40,2229,50,2263,56.7C2297.1,63,2331,67,2366,61.7C2400,57,2434,43,2451,36.7L2468.6,30L2468.6,100L2451.4,100C2434.3,100,2400,100,2366,100C2331.4,100,2297,100,2263,100C2228.6,100,2194,100,2160,100C2125.7,100,2091,100,2057,100C2022.9,100,1989,100,1954,100C1920,100,1886,100,1851,100C1817.1,100,1783,100,1749,100C1714.3,100,1680,100,1646,100C1611.4,100,1577,100,1543,100C1508.6,100,1474,100,1440,100C1405.7,100,1371,100,1337,100C1302.9,100,1269,100,1234,100C1200,100,1166,100,1131,100C1097.1,100,1063,100,1029,100C994.3,100,960,100,926,100C891.4,100,857,100,823,100C788.6,100,754,100,720,100C685.7,100,651,100,617,100C582.9,100,549,100,514,100C480,100,446,100,411,100C377.1,100,343,100,309,100C274.3,100,240,100,206,100C171.4,100,137,100,103,100C68.6,100,34,100,17,100L0,100Z"/></svg>