<?xml version="1.0" standalone="no"?>
<svg xmlns:xlink="http://www.w3.org/1999/xlink" id="wave" style="transform:rotate(180deg); transition: 0.3s" viewBox="0 0 1440 100" version="1.1" xmlns="http://www.w3.org/2000/svg"><defs><linearGradient id="sw-gradient-0" x1="0" x2="0" y1="1" y2="0"><stop stop-color="rgba(245, 245, 220, 1)" offset="0%"/><stop stop-color="rgba(245, 245, 220, 1)" offset="100%"/></linearGradient></defs><path style="transform:translate(0, 0px); opacity:1" fill="url(#sw-gradient-0)" d="M0,0L13.3,11.7C26.7,23,53,47,80,60C106.7,73,133,77,160,75C186.7,73,213,67,240,55C266.7,43,293,27,320,30C346.7,33,373,57,400,70C426.7,83,453,87,480,83.3C506.7,80,533,70,560,68.3C586.7,67,613,73,640,70C666.7,67,693,53,720,51.7C746.7,50,773,60,800,61.7C826.7,63,853,57,880,56.7C906.7,57,933,63,960,63.3C986.7,63,1013,57,1040,46.7C1066.7,37,1093,23,1120,16.7C1146.7,10,1173,10,1200,16.7C1226.7,23,1253,37,1280,45C1306.7,53,1333,57,1360,56.7C1386.7,57,1413,53,1440,45C1466.7,37,1493,23,1520,21.7C1546.7,20,1573,30,1600,33.3C1626.7,37,1653,33,1680,36.7C1706.7,40,1733,50,1760,56.7C1786.7,63,1813,67,1840,61.7C1866.7,57,1893,43,1907,36.7L1920,30L1920,100L1906.7,100C1893.3,100,1867,100,1840,100C1813.3,100,1787,100,1760,100C1733.3,100,1707,100,1680,100C1653.3,100,1627,100,1600,100C1573.3,100,1547,100,1520,100C1493.3,100,1467,100,1440,100C1413.3,100,1387,100,1360,100C1333.3,100,1307,100,1280,100C1253.3,100,1227,100,1200,100C1173.3,100,1147,100,1120,100C1093.3,100,1067,100,1040,100C1013.3,100,987,100,960,100C933.3,100,907,100,880,100C853.3,100,827,100,800,100C773.3,100,747,100,720,100C693.3,100,667,100,640,100C613.3,100,587,100,560,100C533.3,100,507,100,480,100C453.3,100,427,100,400,100C373.3,100,347,100,320,100C293.3,100,267,100,240,100C213.3,100,187,100,160,100C133.3,100,107,100,80,100C53.3,100,27,100,13,100L0,100Z"/></svg>